<?xml version="1.0" encoding="UTF-8" standalone="no"?>
<svg
   xmlns:dc="http://purl.org/dc/elements/1.1/"
   xmlns:cc="http://creativecommons.org/ns#"
   xmlns:rdf="http://www.w3.org/1999/02/22-rdf-syntax-ns#"
   xmlns:svg="http://www.w3.org/2000/svg"
   xmlns="http://www.w3.org/2000/svg"
   xmlns:sodipodi="http://sodipodi.sourceforge.net/DTD/sodipodi-0.dtd"
   xmlns:inkscape="http://www.inkscape.org/namespaces/inkscape"
   viewBox="0.0 0.0 348.0 348.0"
   fill="none"
   version="1.1"
   id="svg1209"
   sodipodi:docname="The Necronomicon.svg"
   inkscape:version="0.92.4 (5da689c313, 2019-01-14)">
  <metadata
     id="metadata1215">
    <rdf:RDF>
      <cc:Work
         rdf:about="">
        <dc:format>image/svg+xml</dc:format>
        <dc:type
           rdf:resource="http://purl.org/dc/dcmitype/StillImage" />
      </cc:Work>
    </rdf:RDF>
  </metadata>
  <defs
     id="defs1213" />
  <sodipodi:namedview
     pagecolor="#ffffff"
     bordercolor="#666666"
     borderopacity="1"
     objecttolerance="10"
     gridtolerance="10"
     guidetolerance="10"
     inkscape:pageopacity="0"
     inkscape:pageshadow="2"
     inkscape:window-width="1366"
     inkscape:window-height="745"
     id="namedview1211"
     showgrid="false"
     inkscape:zoom="1.1744475"
     inkscape:cx="269.38706"
     inkscape:cy="178.2935"
     inkscape:window-x="-8"
     inkscape:window-y="-8"
     inkscape:window-maximized="1"
     inkscape:current-layer="svg1209" />
  <path
     d="M5.079 5.776h336.913v337.67H5.08z"
     stroke-width="2"
     stroke="#000"
     id="path1205"
     style="stroke-width:1.99937008;stroke-miterlimit:4;stroke-dasharray:none" />
  <path
     d="M282.734 40.554c0-8.376 6.966-15.165 15.56-15.165 4.126 0 8.084 1.597 11.001 4.441 2.918 2.844 4.558 6.702 4.558 10.724 0 8.376-6.966 15.165-15.56 15.165-8.593 0-15.559-6.79-15.559-15.165z"
     stroke-width="2"
     stroke="#000"
     id="path1207" />
  <path
     inkscape:connector-curvature="0"
     d="M 25.605126,30.12566 H 258.5748 V 323.97753 H 25.605817 Z"
     id="path1205-7"
     style="stroke:#000000;stroke-width:1.99937008;stroke-miterlimit:4;stroke-dasharray:none" />
  <path
     style="color:#000000;font-style:normal;font-variant:normal;font-weight:normal;font-stretch:normal;font-size:medium;line-height:normal;font-family:Sans;-inkscape-font-specification:Sans;text-indent:0;text-align:start;text-decoration:none;text-decoration-line:none;letter-spacing:normal;word-spacing:normal;text-transform:none;writing-mode:lr-tb;direction:ltr;baseline-shift:baseline;text-anchor:start;display:inline;overflow:visible;visibility:visible;fill:#000000;fill-opacity:1;stroke:none;stroke-width:1.32180691;marker:none;enable-background:accumulate"
     d="m 139.67432,62.863618 c -24.48965,0 -44.38721,19.89757 -44.38721,44.387212 0,24.48964 19.89756,44.38721 44.38721,44.38721 24.48965,0 44.38721,-19.89757 44.38721,-44.38721 0,-24.489642 -19.89756,-44.387212 -44.38721,-44.387212 z m -0.034,4.08588 c 0.0114,-1e-5 0.0227,0 0.034,0 0.1441,0 0.28612,0.003 0.42987,0.004 l 10.48711,17.42463 -1.88547,5.17547 -9.06556,-22.60435 z m -2.62178,0.0894 -10.05724,25.08565 -4.63918,0.0468 14.27507,-25.10267 c 0.14032,-0.0106 0.28064,-0.0207 0.42135,-0.0298 z m 5.52446,0.0128 c 15.48761,1.08615 28.53989,10.89709 34.28741,24.55789 l -19.38243,0.20002 -4.60513,-7.64824 1.17469,-3.22192 h 0.004 c 0.89267,-2.14181 1.88343,-3.35773 2.64306,-3.87306 0.75964,-0.51537 1.14307,-0.44797 1.53647,-0.16599 0.3934,0.28194 0.82795,1.01768 0.91507,2.18337 0.0806,1.0791 -0.13238,2.48541 -0.80867,4.06035 -1.42746,0.314 -2.51112,1.59954 -2.51112,3.11552 0,1.74803 1.43979,3.18355 3.18785,3.18355 1.74806,0 3.18784,-1.43552 3.18784,-3.18355 0,-1.238 -0.7243,-2.32091 -1.76629,-2.84737 0.62295,-1.63126 0.84792,-3.15486 0.74907,-4.47747 -0.11846,-1.58522 -0.69116,-2.92678 -1.76203,-3.69429 -0.53544,-0.38381 -1.18809,-0.56363 -1.86419,-0.54054 -0.6761,0.0231 -1.37721,0.24814 -2.00889,0.67673 -1.26337,0.85709 -2.39877,2.4021 -3.38789,4.77537 l -0.009,0.0212 -0.009,0.0256 -0.62565,1.71524 -8.94638,-14.86243 z m -8.44842,0.28516 -14.13887,24.86008 -17.75659,0.183 c 5.25263,-13.24801 17.32187,-23.03043 31.89546,-25.04308 z m 4.25614,1.8727 9.10386,22.70221 -18.28009,0.18725 z m 20.63373,15.90518 c 0.64397,0 1.1449,0.50091 1.1449,1.1449 0,0.64395 -0.50093,1.14062 -1.1449,1.14062 -0.64398,0 -1.14491,-0.49667 -1.14491,-1.14062 0,-0.64399 0.50093,-1.1449 1.14491,-1.1449 z m -7.03965,1.51092 3.13677,5.2095 -5.05629,0.0511 z m 25.65597,6.95025 c 1.53641,4.26867 2.37493,8.872502 2.37493,13.674962 0,3.37456 -0.41716,6.64937 -1.19598,9.7806 -0.16756,-0.0173 -0.33454,-0.0294 -0.49797,-0.0342 -1.72787,-0.0482 -3.23741,0.61889 -4.4732,1.63859 -0.0472,0.0391 -0.0937,0.0793 -0.14045,0.11918 l -4.98393,-8.28246 1.91951,-1.37897 2.56646,-1.8429 -3.15805,-0.009 -3.28148,-0.009 -2.81756,-4.68174 13.68772,-8.976202 z m -3.88585,0.1064 -10.8574,7.116282 -4.18803,-6.958782 z m -17.41184,0.18301 4.84774,8.052632 -5.92454,3.88583 -4.76687,-11.878882 z m -9.20601,0.0936 -4.81794,13.215332 -18.25881,-0.0468 -0.68524,-0.45969 5.01372,-12.517282 18.74826,-0.19154 z m -20.9572,0.21709 -4.54129,11.329812 -4.96691,-3.32828 4.52002,-7.950472 z m -7.35034,0.0766 -3.86031,6.784262 -9.92105,-6.643822 z m -17.348,0.2128 12.47473,8.354772 -2.43025,4.27321 -3.69858,-0.009 c -0.45573,-1.24875 -1.66175,-2.14933 -3.06016,-2.14933 -1.78387,0 -3.24743,1.46353 -3.24743,3.24742 0,1.78385 1.46356,3.25591 3.24743,3.25591 1.45554,0 2.70162,-0.98171 3.11123,-2.31107 l 2.48558,0.009 -7.81426,13.74303 c -2.0196,-4.80472 -3.13677,-10.08389 -3.13677,-15.62851 0,-4.47096 0.72861,-8.768852 2.06848,-12.785432 z m 47.35799,0.79162 4.68601,11.691632 -0.38306,0.25113 -8.64846,-0.0212 z m 13.40682,8.414412 2.14083,3.55809 -7.54612,-0.0212 z m -46.58763,0.28941 4.7158,3.15804 -6.50337,-0.0169 z m -10.89144,3.0176 c 0.67978,0 1.21299,0.52468 1.21299,1.2045 0,0.67977 -0.53321,1.21298 -1.21299,1.21298 -0.67978,0 -1.20449,-0.53321 -1.20449,-1.21298 0,-0.67982 0.52471,-1.2045 1.20449,-1.2045 z m 7.94194,2.16211 7.461,0.0169 -5.66065,14.12612 c -2.98787,-0.53509 -6.37564,-0.50722 -10.05725,0.37879 z m 9.66143,0.0256 h 1.06403 l 13.20678,8.8485 -13.56856,8.8953 c -0.48652,-0.36047 -1.00504,-0.7058 -1.55348,-1.03421 -1.45578,-0.87175 -3.13103,-1.60802 -4.99245,-2.12807 z m 4.74984,0.009 14.45382,0.0386 -2.6686,7.31626 -0.40858,0.26815 z m 16.6287,0.0424 6.29057,0.0169 -8.27392,5.4223 z m 9.99766,0.0256 h 0.69801 l 2.79627,6.9758 -9.45712,6.79704 -7.2865,-4.87753 0.0979,-0.27663 z m 2.90268,0.009 8.96767,0.0212 0.38731,0.64265 -7.05666,5.07331 z m 10.4105,2.42177 5.15843,8.56757 c -0.96249,1.08363 -1.86342,2.30684 -2.83458,3.51133 a 1.021574,1.021574 0 1 0 1.58754,1.28535 c 1.54502,-1.91618 2.85403,-3.73628 4.17527,-4.82647 1.00141,-0.82629 1.91572,-1.27894 3.124,-1.20021 -2.04138,6.71662 -5.78194,12.68641 -10.72971,17.40759 l -7.81001,-19.47607 z m -9.03577,6.49485 6.41826,16.00306 -14.8454,-9.94235 z m -20.28473,1.56627 -5.29888,14.53466 -1.13639,3.11552 2.68988,-1.93658 13.83243,-9.94654 18.22476,12.20656 a 1.021574,1.021574 0 0 0 0.0468,0.0256 c -7.06602,6.11948 -16.28748,9.81888 -26.38376,9.81888 -10.71668,0 -20.44664,-4.17052 -27.66061,-10.97657 l 10.88719,-7.13754 c 0.87566,0.78086 1.58135,1.59562 2.09827,2.37919 0.71692,1.08677 1.0313,2.09529 1.05553,2.81758 -0.0114,0 -0.0226,0 -0.034,0 -1.78901,0 -3.2602,1.60219 -3.2602,3.55385 0,1.95167 1.47119,3.55815 3.2602,3.55815 1.78901,0 3.26019,-1.60648 3.26019,-3.55815 0,-1.11921 -0.48378,-2.12204 -1.23427,-2.775 0.27462,-1.49087 -0.28805,-3.12435 -1.34068,-4.72003 -0.54024,-0.81895 -1.22576,-1.63453 -2.04295,-2.41323 z m 2.03869,0.37879 6.23949,4.17524 -10.52115,7.56744 z m -29.27367,4.84349 c 1.12856,0 2.20532,0.0923 3.2304,0.25537 l -3.72412,9.29536 c -2.37014,-2.58212 -4.40271,-5.47847 -6.03945,-8.61438 2.32421,-0.65398 4.51016,-0.93871 6.53317,-0.93635 z m 5.26057,0.68946 c 1.76813,0.47676 3.34442,1.16978 4.70303,1.98339 0.26345,0.15774 0.51938,0.31901 0.76611,0.48519 l -8.75913,5.74151 z m 10.29559,11.12554 c 0.73192,0 1.30663,0.61883 1.30663,1.41729 0,0.79847 -0.57471,1.42579 -1.30663,1.42579 -0.73193,0 -1.30238,-0.62732 -1.30238,-1.42579 0,-0.79846 0.57045,-1.41729 1.30238,-1.41729 z"
     id="path3763"
     inkscape:connector-curvature="0" />
  <text
     xml:space="preserve"
     style="font-style:normal;font-weight:normal;font-size:16px;line-height:1.25;font-family:sans-serif;letter-spacing:0px;word-spacing:0px;fill:#000000;fill-opacity:1;stroke:none"
     x="58.453957"
     y="239.01256"
     id="text1813"><tspan
       sodipodi:role="line"
       id="tspan1811"
       x="58.453957"
       y="239.01256"
       style="font-style:normal;font-variant:normal;font-weight:normal;font-stretch:normal;font-size:26.66666603px;font-family:'R\'lyehian';-inkscape-font-specification:'R\'lyehian'">cthulhu</tspan></text>
</svg>
